<svg xmlns="http://www.w3.org/2000/svg" version="1.1" xmlns:xlink="http://www.w3.org/1999/xlink" width="1000" height="1000"><metadata><rdf:RDF xmlns:rdf="http://www.w3.org/1999/02/22-rdf-syntax-ns#" xmlns:dc="http://purl.org/dc/elements/1.1/"><rdf:Description><dc:creator>RealFaviconGenerator</dc:creator><dc:source>https://realfavicongenerator.net</dc:source></rdf:Description></rdf:RDF></metadata><style>
    #light-icon {
      display: inline;
    }
    #dark-icon {
      display: none;
    }

    @media (prefers-color-scheme: dark) {
      #light-icon {
        display: none;
      }
      #dark-icon {
        display: inline;
      }
    }
  </style><g id="light-icon"><svg xmlns="http://www.w3.org/2000/svg" version="1.1" xmlns:xlink="http://www.w3.org/1999/xlink" width="1000" height="1000"><g><g transform="matrix(2.949852507374631,0,0,2.949852507374631,0,64.8967551622419)"><svg xmlns="http://www.w3.org/2000/svg" width="339" height="295" viewBox="0 0 339 295" fill="none"><path fill-rule="evenodd" clip-rule="evenodd" d="M269.784 224.085H117.797C108.376 224.085 99.517 227.754 92.8518 234.416C86.1893 241.079 82.521 249.936 82.521 259.359C82.521 278.81 98.3464 294.634 117.797 294.634H269.785C279.206 294.634 288.064 290.965 294.73 284.303C301.391 277.638 305.06 268.78 305.06 259.359C305.06 239.908 289.235 224.085 269.784 224.085ZM160.02 267.838C160.025 269.441 159.712 271.03 159.098 272.511C158.485 273.992 157.583 275.337 156.447 276.468C155.316 277.605 153.971 278.506 152.49 279.12C151.009 279.734 149.421 280.047 147.817 280.043H133.618C132.63 280.043 131.682 279.651 130.983 278.952C130.285 278.253 129.892 277.306 129.892 276.318C129.892 275.33 130.285 274.382 130.983 273.684C131.682 272.985 132.63 272.593 133.618 272.593H147.818C150.373 272.645 152.623 270.395 152.571 267.838C152.57 266.578 152.069 265.369 151.178 264.478C150.287 263.587 149.078 263.085 147.818 263.084H138.528C137.54 263.084 136.593 262.691 135.894 261.993C135.195 261.294 134.803 260.347 134.803 259.359C134.803 258.371 135.195 257.423 135.894 256.724C136.593 256.026 137.54 255.633 138.528 255.633H147.818C154.069 255.521 154.059 246.226 147.818 246.127H133.618C132.63 246.127 131.682 245.735 130.983 245.036C130.285 244.338 129.892 243.39 129.892 242.402C129.892 241.414 130.285 240.467 130.983 239.768C131.682 239.069 132.63 238.677 133.618 238.677H147.818C151.075 238.677 154.139 239.945 156.446 242.248C157.583 243.378 158.484 244.724 159.098 246.205C159.712 247.687 160.026 249.275 160.021 250.879C160.021 254.171 158.709 257.161 156.583 259.359C158.789 261.63 160.022 264.672 160.02 267.838ZM257.533 274.69H257.521L192.95 274.483C192.461 274.482 191.977 274.385 191.525 274.197C191.073 274.009 190.663 273.734 190.318 273.388C189.62 272.688 189.229 271.74 189.231 270.752C189.232 269.764 189.626 268.817 190.326 268.12C191.026 267.422 191.974 267.031 192.962 267.033H192.974L257.545 267.24C258.533 267.241 259.48 267.635 260.177 268.335C260.875 269.035 261.266 269.983 261.264 270.971C261.262 271.959 260.868 272.906 260.169 273.603C259.469 274.301 258.521 274.692 257.533 274.69ZM257.533 251.685H257.521L192.95 251.478C191.962 251.476 191.015 251.082 190.318 250.382C189.62 249.683 189.229 248.734 189.231 247.746C189.232 246.758 189.626 245.811 190.326 245.114C191.026 244.416 191.974 244.025 192.962 244.027H192.974L257.545 244.234C258.533 244.236 259.48 244.63 260.177 245.329C260.875 246.029 261.266 246.977 261.264 247.965C261.262 248.953 260.868 249.9 260.169 250.598C259.469 251.295 258.521 251.686 257.533 251.685ZM303.726 123.194H151.737C142.315 123.194 133.457 126.864 126.791 133.526C120.13 140.19 116.461 149.049 116.461 158.47C116.461 177.92 132.286 193.744 151.737 193.744H303.726C313.148 193.744 322.006 190.075 328.668 183.413C335.331 176.75 339 167.892 339 158.47C339 139.019 323.176 123.194 303.726 123.194ZM172.468 171.516H186.668C187.656 171.516 188.604 171.908 189.303 172.607C190.001 173.305 190.394 174.253 190.394 175.241C190.394 176.229 190.001 177.177 189.303 177.875C188.604 178.574 187.656 178.966 186.668 178.966H172.468C165.738 178.966 160.263 173.491 160.263 166.761C160.263 163.502 161.533 160.437 163.838 158.132C164.969 156.996 166.314 156.095 167.796 155.482C169.277 154.868 170.865 154.554 172.468 154.558H181.758C183.018 154.557 184.226 154.055 185.117 153.164C186.008 152.273 186.509 151.064 186.51 149.804C186.512 149.179 186.39 148.56 186.151 147.983C185.912 147.406 185.561 146.882 185.118 146.441C184.678 145.999 184.154 145.648 183.578 145.409C183.001 145.17 182.383 145.048 181.759 145.05H167.558C166.57 145.05 165.623 144.657 164.924 143.959C164.225 143.26 163.833 142.312 163.833 141.324C163.833 140.336 164.225 139.389 164.924 138.69C165.623 137.992 166.57 137.599 167.558 137.599H181.759C185.018 137.599 188.083 138.869 190.388 141.174C191.524 142.306 192.425 143.651 193.038 145.132C193.651 146.613 193.965 148.201 193.961 149.804C193.961 156.534 188.487 162.009 181.759 162.009H172.468C171.199 162.009 170.004 162.504 169.105 163.401C168.663 163.841 168.312 164.365 168.073 164.941C167.834 165.518 167.712 166.136 167.714 166.76C167.715 168.021 168.216 169.23 169.107 170.121C169.999 171.013 171.207 171.514 172.468 171.516ZM291.472 173.614H291.46L226.89 173.409C226.401 173.408 225.916 173.311 225.465 173.123C225.013 172.935 224.603 172.66 224.257 172.314C223.56 171.614 223.169 170.666 223.171 169.678C223.172 168.69 223.566 167.743 224.266 167.045C224.966 166.348 225.914 165.957 226.902 165.959H226.914L291.484 166.164C292.472 166.165 293.419 166.559 294.117 167.259C294.814 167.959 295.205 168.907 295.204 169.895C295.202 170.883 294.808 171.83 294.108 172.527C293.409 173.225 292.46 173.616 291.472 173.614ZM291.472 150.61H291.46L226.89 150.404C225.902 150.402 224.955 150.008 224.257 149.308C223.56 148.608 223.169 147.66 223.171 146.672C223.172 145.684 223.566 144.737 224.266 144.04C224.966 143.342 225.914 142.951 226.902 142.953H226.914L291.484 143.16C292.472 143.161 293.419 143.555 294.117 144.255C294.814 144.955 295.205 145.903 295.204 146.891C295.202 147.879 294.808 148.826 294.108 149.524C293.409 150.221 292.46 150.612 291.472 150.61ZM113.516 92.1092H255.504C265.034 92.1092 273.993 88.3986 280.731 81.6616C287.469 74.9247 291.181 65.9668 291.181 56.437C291.181 36.765 275.176 20.7603 255.504 20.7603H111.625C119.162 31.6686 123.197 44.6145 123.191 57.8735C123.191 70.151 119.864 81.8502 113.516 92.1092ZM193.79 41.3547H193.802L258.372 41.5616C259.36 41.5632 260.307 41.9572 261.005 42.6569C261.702 43.3567 262.093 44.3049 262.092 45.2929C262.09 46.2809 261.696 47.2278 260.996 47.9253C260.297 48.6228 259.348 49.0138 258.36 49.0122H258.348L193.778 48.8053C192.79 48.8037 191.843 48.4097 191.145 47.7099C190.448 47.0102 190.057 46.062 190.058 45.074C190.06 44.086 190.454 43.1391 191.154 42.4416C191.854 41.7441 192.802 41.3531 193.79 41.3547ZM193.79 64.3603H193.802L258.372 64.5672C259.36 64.5688 260.307 64.9628 261.005 65.6626C261.702 66.3623 262.093 67.3105 262.092 68.2985C262.09 69.2865 261.696 70.2334 260.996 70.9309C260.297 71.6284 259.348 72.0194 258.36 72.0178H258.348L193.778 71.8109C192.79 71.8093 191.843 71.4153 191.145 70.7156C190.448 70.0158 190.057 69.0676 190.058 68.0796C190.06 67.0916 190.454 66.1447 191.154 65.4472C191.854 64.7497 192.802 64.3587 193.79 64.3603ZM147.364 42.2936L156.528 35.6412C157.084 35.2384 157.74 34.9969 158.425 34.9435C159.109 34.8902 159.795 35.0269 160.407 35.3388C161.019 35.6506 161.532 36.1253 161.891 36.7106C162.251 37.2959 162.441 37.969 162.442 38.6557V70.0765H167.58C168.568 70.0765 169.516 70.469 170.214 71.1676C170.913 71.8663 171.306 72.8138 171.306 73.8018C171.306 74.7898 170.913 75.7374 170.214 76.436C169.516 77.1346 168.568 77.5271 167.58 77.5271H149.922C148.934 77.5271 147.987 77.1346 147.288 76.436C146.589 75.7374 146.197 74.7898 146.197 73.8018C146.197 72.8138 146.589 71.8663 147.288 71.1676C147.987 70.469 148.934 70.0765 149.922 70.0765H154.991V45.9628L151.74 48.3225C151.344 48.6099 150.896 48.8164 150.42 48.9304C149.944 49.0444 149.451 49.0636 148.968 48.9869C147.992 48.8319 147.118 48.2957 146.538 47.4962C145.957 46.6968 145.718 45.6995 145.873 44.7238C146.028 43.7481 146.564 42.8739 147.364 42.2936Z" fill="#090B0C"></path><path fill-rule="evenodd" clip-rule="evenodd" d="M89.0641 106.623C94.5612 103.1 99.4245 98.6758 103.449 93.5352C111.49 83.2743 115.742 70.9425 115.742 57.8722C115.75 43.7346 110.575 30.0843 101.196 19.5056C95.7636 13.3769 89.093 8.46868 81.6248 5.10661C74.1566 1.74455 66.0605 0.00407178 57.8704 0C25.9603 0 0 25.9612 0 57.8722C0 77.6878 9.97213 95.9133 26.6767 106.625C35.9775 112.589 46.7635 115.743 57.8695 115.743C68.9746 115.743 79.7624 112.589 89.0641 106.623ZM36.6957 89.7511C35.5891 88.9533 34.7297 87.8599 34.216 86.5961C33.7024 85.3323 33.5553 83.9493 33.7916 82.6058L36.3646 67.5998L25.461 56.9692C24.48 56.0205 23.7862 54.8145 23.4591 53.4896C23.132 52.1647 23.1849 50.7744 23.6116 49.4781C24.0285 48.1792 24.8029 47.0239 25.8461 46.1448C26.8893 45.2657 28.1591 44.6984 29.5099 44.5077L44.5758 42.319L51.3155 28.6621C51.915 27.4364 52.8475 26.4043 54.0063 25.684C55.165 24.9637 56.5032 24.5843 57.8676 24.5892H57.8704C59.2342 24.5844 60.5717 24.9639 61.7298 25.6843C62.8878 26.4046 63.8194 27.4366 64.418 28.6621L71.1577 42.3181L86.2272 44.5068C88.9988 44.9086 91.2583 46.8141 92.1246 49.4781C92.9908 52.1422 92.2827 55.0123 90.2762 56.9683L79.3716 67.597L81.9455 82.6076C82.42 85.3664 81.3073 88.1041 79.0414 89.7511C77.7965 90.6614 76.2947 91.1531 74.7524 91.1553C73.5651 91.154 72.3959 90.8633 71.3462 90.3083L57.8676 83.2219L44.3891 90.3083C43.1841 90.9483 41.823 91.2355 40.4622 91.1369C39.1014 91.0383 37.7959 90.558 36.6957 89.7511ZM87.3491 116.174C78.2106 120.799 68.1106 123.204 57.8686 123.194C47.6274 123.204 37.5282 120.8 28.3899 116.177V174.606L55.5493 152.971C56.2091 152.445 57.0275 152.159 57.8709 152.159C58.7142 152.159 59.5326 152.445 60.1924 152.971L87.35 174.606L87.3491 116.174Z" fill="#090B0C"></path><path fill-rule="evenodd" clip-rule="evenodd" d="M74.5546 83.5772L72.0175 68.7818C71.8178 67.6147 71.9046 66.4167 72.2703 65.2906C72.636 64.1645 73.2697 63.1441 74.1169 62.317L84.867 51.8391L70.0127 49.6808C68.8402 49.5102 67.7268 49.0569 66.7685 48.3602C65.8101 47.6635 65.0356 46.7441 64.5117 45.6814L57.8685 32.2222L51.2253 45.6823C50.7016 46.7441 49.9277 47.6627 48.9702 48.3591C48.0127 49.0555 46.9004 49.5087 45.7289 49.6798L30.8718 51.8381L41.6192 62.3161C42.4672 63.1421 43.1019 64.1618 43.4684 65.2875C43.8349 66.4132 43.9224 67.6111 43.7232 68.7781L41.186 83.5772L54.4715 76.5919C55.5199 76.0394 56.6872 75.7507 57.8723 75.7509C59.0574 75.7511 60.2246 76.0401 61.2729 76.5928L74.5546 83.5772Z" fill="#090B0C"></path></svg></g></g></svg></g><g id="dark-icon"><svg xmlns="http://www.w3.org/2000/svg" version="1.1" xmlns:xlink="http://www.w3.org/1999/xlink" width="1000" height="1000"><g><g transform="matrix(2.949852507374631,0,0,2.949852507374631,0,64.8967551622419)"><svg xmlns="http://www.w3.org/2000/svg" width="339" height="295" viewBox="0 0 339 295" fill="none"><path fill-rule="evenodd" clip-rule="evenodd" d="M269.784 224.085H117.797C108.376 224.085 99.517 227.754 92.8518 234.416C86.1893 241.079 82.521 249.936 82.521 259.359C82.521 278.81 98.3464 294.634 117.797 294.634H269.785C279.206 294.634 288.064 290.965 294.73 284.303C301.391 277.638 305.06 268.78 305.06 259.359C305.06 239.908 289.235 224.085 269.784 224.085ZM160.02 267.838C160.025 269.441 159.712 271.03 159.098 272.511C158.485 273.992 157.583 275.337 156.447 276.468C155.316 277.605 153.971 278.506 152.49 279.12C151.009 279.734 149.421 280.047 147.817 280.043H133.618C132.63 280.043 131.682 279.651 130.983 278.952C130.285 278.253 129.892 277.306 129.892 276.318C129.892 275.33 130.285 274.382 130.983 273.684C131.682 272.985 132.63 272.593 133.618 272.593H147.818C150.373 272.645 152.623 270.395 152.571 267.838C152.57 266.578 152.069 265.369 151.178 264.478C150.287 263.587 149.078 263.085 147.818 263.084H138.528C137.54 263.084 136.593 262.691 135.894 261.993C135.195 261.294 134.803 260.347 134.803 259.359C134.803 258.371 135.195 257.423 135.894 256.724C136.593 256.026 137.54 255.633 138.528 255.633H147.818C154.069 255.521 154.059 246.226 147.818 246.127H133.618C132.63 246.127 131.682 245.735 130.983 245.036C130.285 244.338 129.892 243.39 129.892 242.402C129.892 241.414 130.285 240.467 130.983 239.768C131.682 239.069 132.63 238.677 133.618 238.677H147.818C151.075 238.677 154.139 239.945 156.446 242.248C157.583 243.378 158.484 244.724 159.098 246.205C159.712 247.687 160.026 249.275 160.021 250.879C160.021 254.171 158.709 257.161 156.583 259.359C158.789 261.63 160.022 264.672 160.02 267.838ZM257.533 274.69H257.521L192.95 274.483C192.461 274.482 191.977 274.385 191.525 274.197C191.073 274.009 190.663 273.734 190.318 273.388C189.62 272.688 189.229 271.74 189.231 270.752C189.232 269.764 189.626 268.817 190.326 268.12C191.026 267.422 191.974 267.031 192.962 267.033H192.974L257.545 267.24C258.533 267.241 259.48 267.635 260.177 268.335C260.875 269.035 261.266 269.983 261.264 270.971C261.262 271.959 260.868 272.906 260.169 273.603C259.469 274.301 258.521 274.692 257.533 274.69ZM257.533 251.685H257.521L192.95 251.478C191.962 251.476 191.015 251.082 190.318 250.382C189.62 249.683 189.229 248.734 189.231 247.746C189.232 246.758 189.626 245.811 190.326 245.114C191.026 244.416 191.974 244.025 192.962 244.027H192.974L257.545 244.234C258.533 244.236 259.48 244.63 260.177 245.329C260.875 246.029 261.266 246.977 261.264 247.965C261.262 248.953 260.868 249.9 260.169 250.598C259.469 251.295 258.521 251.686 257.533 251.685ZM303.726 123.194H151.737C142.315 123.194 133.457 126.864 126.791 133.526C120.13 140.19 116.461 149.049 116.461 158.47C116.461 177.92 132.286 193.744 151.737 193.744H303.726C313.148 193.744 322.006 190.075 328.668 183.413C335.331 176.75 339 167.892 339 158.47C339 139.019 323.176 123.194 303.726 123.194ZM172.468 171.516H186.668C187.656 171.516 188.604 171.908 189.303 172.607C190.001 173.305 190.394 174.253 190.394 175.241C190.394 176.229 190.001 177.177 189.303 177.875C188.604 178.574 187.656 178.966 186.668 178.966H172.468C165.738 178.966 160.263 173.491 160.263 166.761C160.263 163.502 161.533 160.437 163.838 158.132C164.969 156.996 166.314 156.095 167.796 155.482C169.277 154.868 170.865 154.554 172.468 154.558H181.758C183.018 154.557 184.226 154.055 185.117 153.164C186.008 152.273 186.509 151.064 186.51 149.804C186.512 149.179 186.39 148.56 186.151 147.983C185.912 147.406 185.561 146.882 185.118 146.441C184.678 145.999 184.154 145.648 183.578 145.409C183.001 145.17 182.383 145.048 181.759 145.05H167.558C166.57 145.05 165.623 144.657 164.924 143.959C164.225 143.26 163.833 142.312 163.833 141.324C163.833 140.336 164.225 139.389 164.924 138.69C165.623 137.992 166.57 137.599 167.558 137.599H181.759C185.018 137.599 188.083 138.869 190.388 141.174C191.524 142.306 192.425 143.651 193.038 145.132C193.651 146.613 193.965 148.201 193.961 149.804C193.961 156.534 188.487 162.009 181.759 162.009H172.468C171.199 162.009 170.004 162.504 169.105 163.401C168.663 163.841 168.312 164.365 168.073 164.941C167.834 165.518 167.712 166.136 167.714 166.76C167.715 168.021 168.216 169.23 169.107 170.121C169.999 171.013 171.207 171.514 172.468 171.516ZM291.472 173.614H291.46L226.89 173.409C226.401 173.408 225.916 173.311 225.465 173.123C225.013 172.935 224.603 172.66 224.257 172.314C223.56 171.614 223.169 170.666 223.171 169.678C223.172 168.69 223.566 167.743 224.266 167.045C224.966 166.348 225.914 165.957 226.902 165.959H226.914L291.484 166.164C292.472 166.165 293.419 166.559 294.117 167.259C294.814 167.959 295.205 168.907 295.204 169.895C295.202 170.883 294.808 171.83 294.108 172.527C293.409 173.225 292.46 173.616 291.472 173.614ZM291.472 150.61H291.46L226.89 150.404C225.902 150.402 224.955 150.008 224.257 149.308C223.56 148.608 223.169 147.66 223.171 146.672C223.172 145.684 223.566 144.737 224.266 144.04C224.966 143.342 225.914 142.951 226.902 142.953H226.914L291.484 143.16C292.472 143.161 293.419 143.555 294.117 144.255C294.814 144.955 295.205 145.903 295.204 146.891C295.202 147.879 294.808 148.826 294.108 149.524C293.409 150.221 292.46 150.612 291.472 150.61ZM113.516 92.1092H255.504C265.034 92.1092 273.993 88.3986 280.731 81.6616C287.469 74.9247 291.181 65.9668 291.181 56.437C291.181 36.765 275.176 20.7603 255.504 20.7603H111.625C119.162 31.6686 123.197 44.6145 123.191 57.8735C123.191 70.151 119.864 81.8502 113.516 92.1092ZM193.79 41.3547H193.802L258.372 41.5616C259.36 41.5632 260.307 41.9572 261.005 42.6569C261.702 43.3567 262.093 44.3049 262.092 45.2929C262.09 46.2809 261.696 47.2278 260.996 47.9253C260.297 48.6228 259.348 49.0138 258.36 49.0122H258.348L193.778 48.8053C192.79 48.8037 191.843 48.4097 191.145 47.7099C190.448 47.0102 190.057 46.062 190.058 45.074C190.06 44.086 190.454 43.1391 191.154 42.4416C191.854 41.7441 192.802 41.3531 193.79 41.3547ZM193.79 64.3603H193.802L258.372 64.5672C259.36 64.5688 260.307 64.9628 261.005 65.6626C261.702 66.3623 262.093 67.3105 262.092 68.2985C262.09 69.2865 261.696 70.2334 260.996 70.9309C260.297 71.6284 259.348 72.0194 258.36 72.0178H258.348L193.778 71.8109C192.79 71.8093 191.843 71.4153 191.145 70.7156C190.448 70.0158 190.057 69.0676 190.058 68.0796C190.06 67.0916 190.454 66.1447 191.154 65.4472C191.854 64.7497 192.802 64.3587 193.79 64.3603ZM147.364 42.2936L156.528 35.6412C157.084 35.2384 157.74 34.9969 158.425 34.9435C159.109 34.8902 159.795 35.0269 160.407 35.3388C161.019 35.6506 161.532 36.1253 161.891 36.7106C162.251 37.2959 162.441 37.969 162.442 38.6557V70.0765H167.58C168.568 70.0765 169.516 70.469 170.214 71.1676C170.913 71.8663 171.306 72.8138 171.306 73.8018C171.306 74.7898 170.913 75.7374 170.214 76.436C169.516 77.1346 168.568 77.5271 167.58 77.5271H149.922C148.934 77.5271 147.987 77.1346 147.288 76.436C146.589 75.7374 146.197 74.7898 146.197 73.8018C146.197 72.8138 146.589 71.8663 147.288 71.1676C147.987 70.469 148.934 70.0765 149.922 70.0765H154.991V45.9628L151.74 48.3225C151.344 48.6099 150.896 48.8164 150.42 48.9304C149.944 49.0444 149.451 49.0636 148.968 48.9869C147.992 48.8319 147.118 48.2957 146.538 47.4962C145.957 46.6968 145.718 45.6995 145.873 44.7238C146.028 43.7481 146.564 42.8739 147.364 42.2936Z" fill="white"></path><path fill-rule="evenodd" clip-rule="evenodd" d="M89.0641 106.623C94.5612 103.1 99.4245 98.6758 103.449 93.5352C111.49 83.2743 115.742 70.9425 115.742 57.8722C115.75 43.7346 110.575 30.0843 101.196 19.5056C95.7636 13.3769 89.093 8.46868 81.6248 5.10661C74.1566 1.74455 66.0605 0.00407178 57.8704 0C25.9603 0 0 25.9612 0 57.8722C0 77.6878 9.97213 95.9133 26.6767 106.625C35.9775 112.589 46.7635 115.743 57.8695 115.743C68.9746 115.743 79.7624 112.589 89.0641 106.623ZM36.6957 89.7511C35.5891 88.9533 34.7297 87.8599 34.216 86.5961C33.7024 85.3323 33.5553 83.9493 33.7916 82.6058L36.3646 67.5998L25.461 56.9692C24.48 56.0205 23.7862 54.8145 23.4591 53.4896C23.132 52.1647 23.1849 50.7744 23.6116 49.4781C24.0285 48.1792 24.8029 47.0239 25.8461 46.1448C26.8893 45.2657 28.1591 44.6984 29.5099 44.5077L44.5758 42.319L51.3155 28.6621C51.915 27.4364 52.8475 26.4043 54.0063 25.684C55.165 24.9637 56.5032 24.5843 57.8676 24.5892H57.8704C59.2342 24.5844 60.5717 24.9639 61.7298 25.6843C62.8878 26.4046 63.8194 27.4366 64.418 28.6621L71.1577 42.3181L86.2272 44.5068C88.9988 44.9086 91.2583 46.8141 92.1246 49.4781C92.9908 52.1422 92.2827 55.0123 90.2762 56.9683L79.3716 67.597L81.9455 82.6076C82.42 85.3664 81.3073 88.1041 79.0414 89.7511C77.7965 90.6614 76.2947 91.1531 74.7524 91.1553C73.5651 91.154 72.3959 90.8633 71.3462 90.3083L57.8676 83.2219L44.3891 90.3083C43.1841 90.9483 41.823 91.2355 40.4622 91.1369C39.1014 91.0383 37.7959 90.558 36.6957 89.7511ZM87.3491 116.174C78.2106 120.799 68.1106 123.204 57.8686 123.194C47.6274 123.204 37.5282 120.8 28.3899 116.177V174.606L55.5493 152.971C56.2091 152.445 57.0275 152.159 57.8709 152.159C58.7142 152.159 59.5326 152.445 60.1924 152.971L87.35 174.606L87.3491 116.174Z" fill="white"></path><path fill-rule="evenodd" clip-rule="evenodd" d="M74.5546 83.5772L72.0175 68.7818C71.8178 67.6147 71.9046 66.4167 72.2703 65.2906C72.636 64.1645 73.2697 63.1441 74.1169 62.317L84.867 51.8391L70.0127 49.6808C68.8402 49.5102 67.7268 49.0569 66.7685 48.3602C65.8101 47.6635 65.0356 46.7441 64.5117 45.6814L57.8685 32.2222L51.2253 45.6823C50.7016 46.7441 49.9277 47.6627 48.9702 48.3591C48.0127 49.0555 46.9004 49.5087 45.7289 49.6798L30.8718 51.8381L41.6192 62.3161C42.4672 63.1421 43.1019 64.1618 43.4684 65.2875C43.8349 66.4132 43.9224 67.6111 43.7232 68.7781L41.186 83.5772L54.4715 76.5919C55.5199 76.0394 56.6872 75.7507 57.8723 75.7509C59.0574 75.7511 60.2246 76.0401 61.2729 76.5928L74.5546 83.5772Z" fill="white"></path></svg></g></g></svg></g></svg>